<svg width="28" height="28" viewBox="0 0 28 28" fill="none" xmlns="http://www.w3.org/2000/svg">
<path d="M26.25 19.6875V1.3125C26.25 0.585156 25.6648 0 24.9375 0H7C4.10156 0 1.75 2.35156 1.75 5.25V22.75C1.75 25.6484 4.10156 28 7 28H24.9375C25.6648 28 26.25 27.4148 26.25 26.6875V25.8125C26.25 25.4023 26.0586 25.0305 25.7633 24.7898C25.5336 23.9477 25.5336 21.5469 25.7633 20.7047C26.0586 20.4695 26.25 20.0977 26.25 19.6875ZM8.75 7.32812C8.75 7.14766 8.89766 7 9.07812 7H20.6719C20.8523 7 21 7.14766 21 7.32812V8.42188C21 8.60234 20.8523 8.75 20.6719 8.75H9.07812C8.89766 8.75 8.75 8.60234 8.75 8.42188V7.32812ZM8.75 10.8281C8.75 10.6477 8.89766 10.5 9.07812 10.5H20.6719C20.8523 10.5 21 10.6477 21 10.8281V11.9219C21 12.1023 20.8523 12.25 20.6719 12.25H9.07812C8.89766 12.25 8.75 12.1023 8.75 11.9219V10.8281ZM22.6078 24.5H7C6.03203 24.5 5.25 23.718 5.25 22.75C5.25 21.7875 6.0375 21 7 21H22.6078C22.5039 21.9352 22.5039 23.5648 22.6078 24.5Z" fill="white"/>
</svg>
