<svg width="33" height="28" viewBox="0 0 33 28" fill="none" xmlns="http://www.w3.org/2000/svg">
<path d="M8.16683 24.5C7.08386 24.5 6.04525 24.1312 5.27948 23.4748C4.5137 22.8185 4.0835 21.9282 4.0835 21C4.0835 20.3 4.3285 19.6466 4.76405 19.0983L12.2502 7.94496V5.83329C11.8892 5.83329 11.543 5.71038 11.2877 5.49158C11.0325 5.27279 10.8891 4.97605 10.8891 4.66663V3.49996C10.8891 2.88112 11.1759 2.28763 11.6864 1.85004C12.1969 1.41246 12.8893 1.16663 13.6113 1.16663H19.0557C19.7777 1.16663 20.4701 1.41246 20.9806 1.85004C21.4911 2.28763 21.7779 2.88112 21.7779 3.49996V4.66663C21.7779 4.97605 21.6345 5.27279 21.3793 5.49158C21.124 5.71038 20.7778 5.83329 20.4168 5.83329V7.94496L27.9029 19.0983C28.3385 19.6466 28.5835 20.3 28.5835 21C28.5835 21.9282 28.1533 22.8185 27.3875 23.4748C26.6217 24.1312 25.5831 24.5 24.5002 24.5H8.16683ZM6.80572 21C6.80572 21.3094 6.94912 21.6061 7.20438 21.8249C7.45964 22.0437 7.80584 22.1666 8.16683 22.1666H24.5002C24.8612 22.1666 25.2074 22.0437 25.4626 21.8249C25.7179 21.6061 25.8613 21.3094 25.8613 21C25.8613 20.755 25.766 20.5216 25.6163 20.335L22.4993 15.715L19.0557 18.6666L12.1549 12.7516L7.05072 20.335C6.901 20.5216 6.80572 20.755 6.80572 21ZM17.6946 10.5C17.3336 10.5 16.9874 10.6229 16.7322 10.8417C16.4769 11.0605 16.3335 11.3572 16.3335 11.6666C16.3335 11.976 16.4769 12.2728 16.7322 12.4916C16.9874 12.7104 17.3336 12.8333 17.6946 12.8333C18.0556 12.8333 18.4018 12.7104 18.6571 12.4916C18.9123 12.2728 19.0557 11.976 19.0557 11.6666C19.0557 11.3572 18.9123 11.0605 18.6571 10.8417C18.4018 10.6229 18.0556 10.5 17.6946 10.5Z" fill="white"/>
</svg>
