<svg width="28" height="28" viewBox="0 0 28 28" fill="none" xmlns="http://www.w3.org/2000/svg">
<g clip-path="url(#clip0_156:1923)">
<path d="M4.86316 13.9263C6.65138 13.9263 8.10526 12.4724 8.10526 10.6842C8.10526 8.89594 6.65138 7.44206 4.86316 7.44206C3.07493 7.44206 1.62105 8.89594 1.62105 10.6842C1.62105 12.4724 3.07493 13.9263 4.86316 13.9263ZM27.5579 13.9263C29.3461 13.9263 30.8 12.4724 30.8 10.6842C30.8 8.89594 29.3461 7.44206 27.5579 7.44206C25.7697 7.44206 24.3158 8.89594 24.3158 10.6842C24.3158 12.4724 25.7697 13.9263 27.5579 13.9263ZM29.1789 15.5473H25.9368C25.0453 15.5473 24.2398 15.907 23.6522 16.4896C25.6937 17.6091 27.1425 19.6303 27.4566 22.0315H30.8C31.6966 22.0315 32.4211 21.3071 32.4211 20.4105V18.7894C32.4211 17.0012 30.9672 15.5473 29.1789 15.5473ZM16.2105 15.5473C19.3463 15.5473 21.8842 13.0094 21.8842 9.87364C21.8842 6.73791 19.3463 4.19995 16.2105 4.19995C13.0748 4.19995 10.5368 6.73791 10.5368 9.87364C10.5368 13.0094 13.0748 15.5473 16.2105 15.5473ZM20.1011 17.1684H19.6806C18.6269 17.675 17.4567 17.9789 16.2105 17.9789C14.9643 17.9789 13.7992 17.675 12.7405 17.1684H12.32C9.09816 17.1684 6.48421 19.7823 6.48421 23.0042V24.4631C6.48421 25.8055 7.57336 26.8947 8.91579 26.8947H23.5053C24.8477 26.8947 25.9368 25.8055 25.9368 24.4631V23.0042C25.9368 19.7823 23.3229 17.1684 20.1011 17.1684ZM8.76888 16.4896C8.18125 15.907 7.37579 15.5473 6.48421 15.5473H3.24211C1.45388 15.5473 0 17.0012 0 18.7894V20.4105C0 21.3071 0.724408 22.0315 1.62105 22.0315H4.95941C5.27855 19.6303 6.72737 17.6091 8.76888 16.4896Z" fill="white"/>
</g>
<defs>
<clipPath id="clip0_156:1923">
<rect width="28" height="28" fill="white"/>
</clipPath>
</defs>
</svg>
