<svg width="202" height="38" viewBox="0 0 202 38" fill="none" xmlns="http://www.w3.org/2000/svg">
<path d="M6.08 14.171C5.054 14.171 4.066 14.038 3.116 13.772C2.17867 13.4933 1.39967 13.107 0.779 12.613L1.729 10.485C3.03367 11.397 4.49033 11.853 6.099 11.853C6.96033 11.853 7.619 11.72 8.075 11.454C8.54367 11.1753 8.778 10.789 8.778 10.295C8.778 9.86433 8.56267 9.52867 8.132 9.288C7.714 9.03467 6.973 8.794 5.909 8.566C4.71833 8.32533 3.76833 8.034 3.059 7.692C2.36233 7.33733 1.84933 6.913 1.52 6.419C1.20333 5.91233 1.045 5.28533 1.045 4.538C1.045 3.72733 1.26667 2.999 1.71 2.353C2.166 1.707 2.79933 1.20667 3.61 0.851999C4.42067 0.484666 5.358 0.301 6.422 0.301C7.38467 0.301 8.30933 0.440333 9.196 0.718999C10.0827 0.997666 10.792 1.37767 11.324 1.859L10.374 3.987C9.18333 3.075 7.87233 2.619 6.441 2.619C5.681 2.619 5.073 2.771 4.617 3.075C4.161 3.379 3.933 3.79067 3.933 4.31C3.933 4.614 4.01533 4.86733 4.18 5.07C4.35733 5.27267 4.64867 5.45633 5.054 5.621C5.45933 5.773 6.03567 5.925 6.783 6.077C8.51833 6.457 9.766 6.951 10.526 7.559C11.2987 8.167 11.685 8.99667 11.685 10.048C11.685 11.3147 11.191 12.3217 10.203 13.069C9.215 13.8037 7.84067 14.171 6.08 14.171ZM14.0363 0.472H23.3653V2.771H16.9243V5.963H22.9663V8.281H16.9243V11.701H23.3653V14H14.0363V0.472ZM28.8748 2.885H24.6378V0.472H36.1138V2.885H31.8768V14H28.8748V2.885ZM49.9734 0.472V14H47.0664V8.319H40.7964V14H37.8894V0.472H40.7964V5.944H47.0664V0.472H49.9734ZM58.3732 0.472H59.9312V12.67H66.7142V14H58.3732V0.472ZM77.5024 10.523H70.4344L68.9334 14H67.3184L73.2654 0.472H74.6334L80.5804 14H78.9844L77.5024 10.523ZM76.9514 9.231L73.9684 2.277L70.9854 9.231H76.9514ZM90.4775 7.046C91.2502 7.26133 91.8518 7.654 92.2825 8.224C92.7132 8.78133 92.9285 9.478 92.9285 10.314C92.9285 11.492 92.5358 12.404 91.7505 13.05C90.9652 13.6833 89.8568 14 88.4255 14H82.8015V0.472H88.2355C89.6162 0.472 90.6865 0.782333 91.4465 1.403C92.2192 2.011 92.6055 2.87867 92.6055 4.006C92.6055 4.728 92.4155 5.355 92.0355 5.887C91.6682 6.40633 91.1488 6.79267 90.4775 7.046ZM84.3405 6.476H87.9885C89.0018 6.476 89.7682 6.27333 90.2875 5.868C90.8068 5.46267 91.0665 4.86733 91.0665 4.082C91.0665 2.53667 90.0405 1.764 87.9885 1.764H84.3405V6.476ZM88.2925 12.708C89.3565 12.708 90.1355 12.5117 90.6295 12.119C91.1362 11.7137 91.3895 11.0993 91.3895 10.276C91.3895 8.61667 90.3572 7.787 88.2925 7.787H84.3405V12.708H88.2925ZM101.596 14.152C100.342 14.152 99.2528 13.8733 98.3281 13.316C97.4034 12.7587 96.6878 11.9607 96.1811 10.922C95.6871 9.87067 95.4401 8.642 95.4401 7.236C95.4401 5.81733 95.6871 4.58867 96.1811 3.55C96.6751 2.51133 97.3844 1.71333 98.3091 1.156C99.2338 0.598666 100.329 0.319999 101.596 0.319999C102.863 0.319999 103.958 0.598666 104.883 1.156C105.808 1.71333 106.517 2.51133 107.011 3.55C107.505 4.58867 107.752 5.811 107.752 7.217C107.752 8.63567 107.499 9.86433 106.992 10.903C106.498 11.9417 105.789 12.746 104.864 13.316C103.939 13.8733 102.85 14.152 101.596 14.152ZM101.596 12.822C103.027 12.822 104.142 12.3343 104.94 11.359C105.738 10.3837 106.137 9.003 106.137 7.217C106.137 5.431 105.738 4.05667 104.94 3.094C104.155 2.13133 103.04 1.65 101.596 1.65C100.152 1.65 99.0311 2.13767 98.2331 3.113C97.4351 4.07567 97.0361 5.44367 97.0361 7.217C97.0361 9.003 97.4351 10.3837 98.2331 11.359C99.0311 12.3343 100.152 12.822 101.596 12.822ZM121.432 14H119.779L118.107 9.497C117.904 8.93967 117.619 8.566 117.252 8.376C116.897 8.186 116.391 8.091 115.732 8.091H112.35V14H110.811V0.472H116.188C117.645 0.472 118.759 0.795 119.532 1.441C120.317 2.087 120.71 3.018 120.71 4.234C120.71 5.12067 120.476 5.868 120.007 6.476C119.551 7.07133 118.886 7.49567 118.012 7.749C118.405 7.81233 118.74 7.98333 119.019 8.262C119.298 8.528 119.532 8.91433 119.722 9.421L121.432 14ZM116.055 6.799C118.132 6.799 119.171 5.95033 119.171 4.253C119.171 3.417 118.918 2.79633 118.411 2.391C117.904 1.973 117.119 1.764 116.055 1.764H112.35V6.799H116.055ZM132.927 10.523H125.859L124.358 14H122.743L128.69 0.472H130.058L136.005 14H134.409L132.927 10.523ZM132.376 9.231L129.393 2.277L126.41 9.231H132.376ZM139.917 1.802H135.205V0.472H146.206V1.802H141.494V14H139.917V1.802ZM153.125 14.152C151.871 14.152 150.781 13.8733 149.857 13.316C148.932 12.7587 148.216 11.9607 147.71 10.922C147.216 9.87067 146.969 8.642 146.969 7.236C146.969 5.81733 147.216 4.58867 147.71 3.55C148.204 2.51133 148.913 1.71333 149.838 1.156C150.762 0.598666 151.858 0.319999 153.125 0.319999C154.391 0.319999 155.487 0.598666 156.412 1.156C157.336 1.71333 158.046 2.51133 158.54 3.55C159.034 4.58867 159.281 5.811 159.281 7.217C159.281 8.63567 159.027 9.86433 158.521 10.903C158.027 11.9417 157.317 12.746 156.393 13.316C155.468 13.8733 154.379 14.152 153.125 14.152ZM153.125 12.822C154.556 12.822 155.671 12.3343 156.469 11.359C157.267 10.3837 157.666 9.003 157.666 7.217C157.666 5.431 157.267 4.05667 156.469 3.094C155.683 2.13133 154.569 1.65 153.125 1.65C151.681 1.65 150.56 2.13767 149.762 3.113C148.964 4.07567 148.565 5.44367 148.565 7.217C148.565 9.003 148.964 10.3837 149.762 11.359C150.56 12.3343 151.681 12.822 153.125 12.822ZM172.96 14H171.307L169.635 9.497C169.433 8.93967 169.148 8.566 168.78 8.376C168.426 8.186 167.919 8.091 167.26 8.091H163.878V14H162.339V0.472H167.716C169.173 0.472 170.288 0.795 171.06 1.441C171.846 2.087 172.238 3.018 172.238 4.234C172.238 5.12067 172.004 5.868 171.535 6.476C171.079 7.07133 170.414 7.49567 169.54 7.749C169.933 7.81233 170.269 7.98333 170.547 8.262C170.826 8.528 171.06 8.91433 171.25 9.421L172.96 14ZM167.583 6.799C169.661 6.799 170.699 5.95033 170.699 4.253C170.699 3.417 170.446 2.79633 169.939 2.391C169.433 1.973 168.647 1.764 167.583 1.764H163.878V6.799H167.583ZM175.713 0.472H177.271V14H175.713V0.472ZM180.812 0.472H189.362V1.764H182.351V6.476H188.982V7.787H182.351V12.708H189.362V14H180.812V0.472ZM196.29 14.152C194.175 14.152 192.49 13.582 191.236 12.442L191.825 11.245C192.496 11.815 193.18 12.2203 193.877 12.461C194.574 12.7017 195.384 12.822 196.309 12.822C197.398 12.822 198.234 12.613 198.817 12.195C199.412 11.7643 199.71 11.1627 199.71 10.39C199.71 9.934 199.564 9.56667 199.273 9.288C198.994 8.99667 198.621 8.76867 198.152 8.604C197.696 8.43933 197.082 8.26833 196.309 8.091C195.27 7.863 194.415 7.616 193.744 7.35C193.073 7.084 192.528 6.704 192.11 6.21C191.692 5.70333 191.483 5.04467 191.483 4.234C191.483 3.46133 191.686 2.78367 192.091 2.201C192.496 1.60567 193.066 1.14333 193.801 0.814C194.548 0.484666 195.416 0.319999 196.404 0.319999C197.341 0.319999 198.215 0.465666 199.026 0.756999C199.837 1.04833 200.521 1.47267 201.078 2.03L200.47 3.227C199.837 2.68233 199.191 2.28333 198.532 2.03C197.886 1.77667 197.177 1.65 196.404 1.65C195.353 1.65 194.529 1.878 193.934 2.334C193.339 2.77733 193.041 3.39167 193.041 4.177C193.041 4.861 193.301 5.374 193.82 5.716C194.339 6.058 195.137 6.35567 196.214 6.609C197.379 6.88767 198.291 7.14733 198.95 7.388C199.621 7.616 200.179 7.97067 200.622 8.452C201.065 8.92067 201.287 9.54767 201.287 10.333C201.287 11.093 201.084 11.7643 200.679 12.347C200.274 12.917 199.691 13.3603 198.931 13.677C198.184 13.9937 197.303 14.152 196.29 14.152ZM42.9048 24.472H44.4628V36.67H51.2458V38H42.9048V24.472ZM58.6124 24.472H60.1704V38H58.6124V24.472ZM81.652 24.472V38H80.208V27.949L75.819 38H74.717L70.29 28.025L70.309 38H68.865V24.472H70.157L75.287 36.138L80.36 24.472H81.652ZM90.3431 24.472H91.9011V38H90.3431V24.472ZM103.864 25.802H99.1516V24.472H110.153V25.802H105.441V38H103.864V25.802ZM117.398 24.472H125.948V25.764H118.937V30.476H125.568V31.787H118.937V36.708H125.948V38H117.398V24.472ZM133.922 24.472H138.463C140.629 24.472 142.301 25.061 143.479 26.239C144.67 27.4043 145.265 29.0637 145.265 31.217C145.265 33.383 144.67 35.055 143.479 36.233C142.301 37.411 140.629 38 138.463 38H133.922V24.472ZM138.368 36.67C140.116 36.67 141.427 36.214 142.301 35.302C143.188 34.39 143.631 33.0283 143.631 31.217C143.631 27.607 141.877 25.802 138.368 25.802H135.48V36.67H138.368Z" fill="white"/>
</svg>
