<svg width="28" height="28" viewBox="0 0 28 28" fill="none" xmlns="http://www.w3.org/2000/svg">
<path d="M26.6546 17.2648L24.3249 15.9195C24.5601 14.6507 24.5601 13.3492 24.3249 12.0804L26.6546 10.7351C26.9226 10.582 27.0429 10.2648 26.9554 9.96949C26.3484 8.02261 25.3148 6.26167 23.964 4.79605C23.7562 4.57183 23.4171 4.51714 23.1546 4.67027L20.8249 6.01558C19.846 5.17339 18.7195 4.52261 17.4999 4.09605V1.41089C17.4999 1.10464 17.2867 0.836672 16.9859 0.771047C14.9788 0.32261 12.9226 0.344485 11.014 0.771047C10.7132 0.836672 10.4999 1.10464 10.4999 1.41089V4.10152C9.28588 4.53355 8.15932 5.18433 7.17494 6.02105L4.85072 4.67574C4.58275 4.52261 4.24916 4.57183 4.04135 4.80152C2.69057 6.26167 1.65698 8.02261 1.04994 9.97495C0.956975 10.2703 1.08276 10.5875 1.35073 10.7406L3.68041 12.0859C3.44526 13.3546 3.44526 14.6562 3.68041 15.925L1.35073 17.2703C1.08276 17.4234 0.962444 17.7406 1.04994 18.0359C1.65698 19.9828 2.69057 21.7437 4.04135 23.2093C4.24916 23.4335 4.58822 23.4882 4.85072 23.3351L7.18041 21.9898C8.15932 22.832 9.28588 23.4828 10.5054 23.9093V26.6C10.5054 26.9062 10.7187 27.1742 11.0195 27.2398C13.0265 27.6882 15.0827 27.6664 16.9913 27.2398C17.2921 27.1742 17.5054 26.9062 17.5054 26.6V23.9093C18.7195 23.4773 19.846 22.8265 20.8304 21.9898L23.1601 23.3351C23.4281 23.4882 23.7616 23.439 23.9695 23.2093C25.3202 21.7492 26.3538 19.9882 26.9609 18.0359C27.0429 17.7351 26.9226 17.4179 26.6546 17.2648ZM13.9999 18.375C11.5882 18.375 9.62494 16.4117 9.62494 14C9.62494 11.5882 11.5882 9.62496 13.9999 9.62496C16.4117 9.62496 18.3749 11.5882 18.3749 14C18.3749 16.4117 16.4117 18.375 13.9999 18.375Z" fill="white"/>
</svg>
