<svg width="28" height="28" viewBox="0 0 28 28" fill="none" xmlns="http://www.w3.org/2000/svg">
<g clip-path="url(#clip0_156:1931)">
<path d="M8.81136 19.8313C8.33612 19.356 8.58386 19.49 7.43761 19.1832C6.91753 19.0438 6.46034 18.7758 6.0469 18.4548L3.56573 24.5382C3.32565 25.1272 3.77409 25.7671 4.40956 25.743L7.29105 25.6331L9.27292 27.7265C9.71042 28.1881 10.4782 28.0443 10.7183 27.4553L13.5648 20.476C12.972 20.8064 12.3141 21 11.6338 21C10.5674 21 9.5655 20.5849 8.81136 19.8313ZM24.4345 24.5382L21.9533 18.4548C21.5399 18.7764 21.0827 19.0438 20.5626 19.1832C19.4103 19.4917 19.663 19.3571 19.1889 19.8313C18.4347 20.5849 17.4323 21 16.3659 21C15.6856 21 15.0277 20.8058 14.4349 20.476L17.2814 27.4553C17.5214 28.0443 18.2898 28.1881 18.7267 27.7265L20.7092 25.6331L23.5907 25.743C24.2261 25.7671 24.6746 25.1267 24.4345 24.5382ZM17.8829 18.5937C18.7185 17.7433 18.8142 17.8166 20.0042 17.4923C20.7639 17.285 21.3578 16.6807 21.5612 15.9075C21.9703 14.3543 21.8642 14.5419 22.9803 13.4055C23.5365 12.8395 23.7536 12.0142 23.5502 11.241C23.1417 9.68894 23.1411 9.9055 23.5502 8.35183C23.7536 7.57855 23.5365 6.75331 22.9803 6.1873C21.8642 5.05089 21.9703 5.23792 21.5612 3.68534C21.3578 2.91206 20.7639 2.30777 20.0042 2.1005C18.4796 1.68433 18.6633 1.79316 17.546 0.656203C16.9899 0.0901871 16.1789 -0.131297 15.4192 0.0759683C13.8951 0.491593 14.1078 0.49214 12.581 0.0759683C11.8214 -0.131297 11.0103 0.0896402 10.4542 0.656203C9.338 1.79261 9.52175 1.68433 7.99651 2.1005C7.2369 2.30777 6.643 2.91206 6.43956 3.68534C6.03105 5.23792 6.13659 5.05089 5.02042 6.1873C4.46425 6.75331 4.24659 7.57855 4.45058 8.35183C4.85909 9.90277 4.85964 9.6862 4.45058 11.2404C4.24714 12.0137 4.46425 12.8389 5.02042 13.4055C6.13659 14.5419 6.0305 14.3543 6.43956 15.9075C6.643 16.6807 7.2369 17.285 7.99651 17.4923C9.22042 17.8259 9.31175 17.7734 10.1173 18.5937C10.8408 19.3303 11.9679 19.4621 12.8375 18.912C13.1852 18.6912 13.5885 18.574 14.0004 18.574C14.4122 18.574 14.8156 18.6912 15.1633 18.912C16.0323 19.4621 17.1594 19.3303 17.8829 18.5937ZM8.84089 9.62277C8.84089 6.72269 11.1509 4.37167 14.0001 4.37167C16.8493 4.37167 19.1593 6.72269 19.1593 9.62277C19.1593 12.5228 16.8493 14.8739 14.0001 14.8739C11.1509 14.8739 8.84089 12.5228 8.84089 9.62277Z" fill="white"/>
</g>
<defs>
<clipPath id="clip0_156:1931">
<rect width="28" height="28" fill="white"/>
</clipPath>
</defs>
</svg>
