<svg width="28" height="28" viewBox="0 0 28 28" fill="none" xmlns="http://www.w3.org/2000/svg">
<path d="M6.22222 9.33329H21.7778V18.6666H6.22222V9.33329ZM25.6667 14C25.6667 15.2886 26.7113 16.3333 28 16.3333V21C28 22.2886 26.9553 23.3333 25.6667 23.3333H2.33333C1.04465 23.3333 0 22.2886 0 21V16.3333C1.28868 16.3333 2.33333 15.2886 2.33333 14C2.33333 12.7113 1.28868 11.6666 0 11.6666V6.99996C0 5.71128 1.04465 4.66663 2.33333 4.66663H25.6667C26.9553 4.66663 28 5.71128 28 6.99996V11.6666C26.7113 11.6666 25.6667 12.7113 25.6667 14ZM23.3333 8.9444C23.3333 8.30006 22.811 7.77774 22.1667 7.77774H5.83333C5.18899 7.77774 4.66667 8.30006 4.66667 8.9444V19.0555C4.66667 19.6999 5.18899 20.2222 5.83333 20.2222H22.1667C22.811 20.2222 23.3333 19.6999 23.3333 19.0555V8.9444Z" fill="white"/>
</svg>
