<svg width="28" height="27" viewBox="0 0 28 27" fill="none" xmlns="http://www.w3.org/2000/svg">
<path d="M27.1657 15.0243H14.9523L23.0861 23.2685C23.397 23.5836 23.9086 23.6092 24.2283 23.304C26.2202 21.4019 27.5903 18.8379 27.9923 15.9555C28.0613 15.462 27.6572 15.0243 27.1657 15.0243ZM26.3509 11.6438C25.9268 5.41176 21.0134 0.431755 14.8648 0.00188642C14.3954 -0.0309798 14.0001 0.370196 14.0001 0.847017V12.5202H25.5176C25.988 12.5202 26.3833 12.1196 26.3509 11.6438ZM11.5295 15.0243V2.64527C11.5295 2.14706 11.0977 1.73753 10.6113 1.80744C4.47752 2.68596 -0.210916 8.11722 0.00731835 14.6263C0.231729 21.3112 5.91046 26.793 12.509 26.709C15.1031 26.6762 17.5001 25.829 19.4709 24.4121C19.8775 24.1199 19.9042 23.5132 19.5517 23.1558L11.5295 15.0243Z" fill="white"/>
</svg>
