<svg width="35" height="35" viewBox="0 0 35 35" fill="none" xmlns="http://www.w3.org/2000/svg">
<path d="M14.7656 0H20.2344C21.1436 0 21.875 0.731445 21.875 1.64062V13.125H27.8701C29.0869 13.125 29.6953 14.5947 28.834 15.4561L18.4365 25.8604C17.9238 26.373 17.083 26.373 16.5703 25.8604L6.15918 15.4561C5.29785 14.5947 5.90625 13.125 7.12305 13.125H13.125V1.64062C13.125 0.731445 13.8564 0 14.7656 0ZM35 25.7031V33.3594C35 34.2686 34.2686 35 33.3594 35H1.64062C0.731445 35 0 34.2686 0 33.3594V25.7031C0 24.7939 0.731445 24.0625 1.64062 24.0625H11.6689L15.0186 27.4121C16.3926 28.7861 18.6074 28.7861 19.9814 27.4121L23.3311 24.0625H33.3594C34.2686 24.0625 35 24.7939 35 25.7031ZM26.5234 31.7188C26.5234 30.9668 25.9082 30.3516 25.1562 30.3516C24.4043 30.3516 23.7891 30.9668 23.7891 31.7188C23.7891 32.4707 24.4043 33.0859 25.1562 33.0859C25.9082 33.0859 26.5234 32.4707 26.5234 31.7188ZM30.8984 31.7188C30.8984 30.9668 30.2832 30.3516 29.5312 30.3516C28.7793 30.3516 28.1641 30.9668 28.1641 31.7188C28.1641 32.4707 28.7793 33.0859 29.5312 33.0859C30.2832 33.0859 30.8984 32.4707 30.8984 31.7188Z" fill="#055669"/>
</svg>
