<svg width="35" height="42" viewBox="0 0 35 42" fill="none" xmlns="http://www.w3.org/2000/svg">
<path d="M34.362 9.16136L25.4388 1.44269C25.0286 1.08826 24.4727 0.891357 23.8893 0.891357H23.3333V10.9729H35V10.4924C35 9.99623 34.7721 9.51578 34.362 9.16136ZM20.4167 11.603V0.891357H2.1875C0.97526 0.891357 0 1.73411 0 2.78164V39.3272C0 40.3747 0.97526 41.2174 2.1875 41.2174H32.8125C34.0247 41.2174 35 40.3747 35 39.3272V13.4933H22.6042C21.401 13.4933 20.4167 12.6426 20.4167 11.603ZM5.83333 6.56221C5.83333 6.21409 6.15964 5.93212 6.5625 5.93212H13.8542C14.257 5.93212 14.5833 6.21409 14.5833 6.56221V7.8224C14.5833 8.17053 14.257 8.4525 13.8542 8.4525H6.5625C6.15964 8.4525 5.83333 8.17053 5.83333 7.8224V6.56221ZM5.83333 12.8632V11.603C5.83333 11.2548 6.15964 10.9729 6.5625 10.9729H13.8542C14.257 10.9729 14.5833 11.2548 14.5833 11.603V12.8632C14.5833 13.2113 14.257 13.4933 13.8542 13.4933H6.5625C6.15964 13.4933 5.83333 13.2113 5.83333 12.8632ZM18.9583 33.6469V35.5466C18.9583 35.8947 18.632 36.1767 18.2292 36.1767H16.7708C16.368 36.1767 16.0417 35.8947 16.0417 35.5466V33.6335C15.0126 33.5878 14.0118 33.2775 13.1824 32.7395C12.827 32.5087 12.8087 32.0488 13.1305 31.7833L14.2014 30.9004C14.4539 30.6925 14.8294 30.683 15.1247 30.8429C15.4775 31.0335 15.8776 31.1359 16.2932 31.1359H18.8553C19.4478 31.1359 19.9309 30.6697 19.9309 30.0971C19.9309 29.6284 19.6018 29.2157 19.1315 29.0944L15.0299 28.0311C13.3355 27.5916 12.1516 26.1865 12.1516 24.6137C12.1516 22.6824 13.8879 21.1135 16.0408 21.0639V19.1641C16.0408 18.816 16.3671 18.534 16.7699 18.534H18.2283C18.6311 18.534 18.9574 18.816 18.9574 19.1641V21.0772C19.9865 21.1229 20.9872 21.4325 21.8167 21.9712C22.1721 22.202 22.1904 22.6619 21.8686 22.9274L20.7977 23.8103C20.5452 24.0182 20.1697 24.0277 19.8743 23.8678C19.5216 23.6764 19.1215 23.5748 18.7059 23.5748H16.1437C15.5513 23.5748 15.0682 24.0411 15.0682 24.6137C15.0682 25.0823 15.3973 25.495 15.8676 25.6163L19.9691 26.6796C21.6635 27.1191 22.8475 28.5242 22.8475 30.0971C22.8475 32.0291 21.1112 33.5972 18.9583 33.6469Z" fill="#194A00"/>
</svg>
