<svg width="20" height="20" viewBox="0 0 20 20" fill="none" xmlns="http://www.w3.org/2000/svg">
<path d="M19.5241 3.03405e-07H17.644C17.5796 -7.24856e-05 17.5158 0.0129524 17.4565 0.0382851C17.3973 0.0636178 17.3438 0.100731 17.2993 0.147373C17.2548 0.194015 17.2202 0.249215 17.1976 0.309626C17.1751 0.370036 17.1651 0.434398 17.1681 0.49881L17.3268 3.78293C16.4045 2.69543 15.2565 1.82206 13.9627 1.22358C12.6688 0.6251 11.2602 0.31589 9.83483 0.31746C4.41536 0.31746 -0.00396299 4.74325 2.66683e-06 10.1663C0.00396832 15.598 4.40585 20 9.83483 20C12.2702 20.0034 14.6195 19.0993 16.425 17.4639C16.4732 17.4207 16.5121 17.3681 16.5393 17.3093C16.5666 17.2506 16.5815 17.1869 16.5833 17.1221C16.5851 17.0574 16.5737 16.993 16.5497 16.9328C16.5257 16.8726 16.4898 16.818 16.444 16.7722L15.0957 15.423C15.0103 15.3376 14.8958 15.2879 14.7752 15.2838C14.6546 15.2798 14.537 15.3217 14.4461 15.4012C13.3807 16.3391 12.0549 16.9298 10.6455 17.0946C9.23601 17.2593 7.80986 16.9902 6.55714 16.3232C5.30442 15.6562 4.28464 14.6229 3.63375 13.3611C2.98286 12.0993 2.73178 10.669 2.914 9.26081C3.09621 7.8526 3.70305 6.53342 4.65362 5.47914C5.60419 4.42485 6.85333 3.68554 8.23452 3.35977C9.6157 3.034 11.0633 3.13725 12.3844 3.65575C13.7054 4.17425 14.8371 5.08336 15.6287 6.2619L11.6023 6.06865C11.538 6.06558 11.4736 6.07564 11.4133 6.09819C11.3529 6.12075 11.2977 6.15534 11.2511 6.19986C11.2045 6.24439 11.1674 6.29793 11.1421 6.35723C11.1168 6.41653 11.1038 6.48035 11.1038 6.54484V8.42619C11.1038 8.55248 11.154 8.6736 11.2432 8.7629C11.3325 8.85221 11.4535 8.90238 11.5797 8.90238H19.5241C19.6503 8.90238 19.7714 8.85221 19.8606 8.7629C19.9499 8.6736 20 8.55248 20 8.42619V0.476191C20 0.349897 19.9499 0.228776 19.8606 0.139473C19.7714 0.0501702 19.6503 3.03405e-07 19.5241 3.03405e-07Z" fill="#055669"/>
</svg>
